<svg width="852" height="128" viewBox="0 0 852 128" fill="none" xmlns="http://www.w3.org/2000/svg">
<g clip-path="url(#clip0_10_9)">
<path d="M0 128L128 0H80L0 80V128Z" fill="url(#paint0_linear_10_9)"/>
<path d="M0 48V0H48L0 48Z" fill="url(#paint1_linear_10_9)"/>
<path d="M128 128H32L80 80L128 128Z" fill="url(#paint2_linear_10_9)"/>
<path d="M245.479 126.247L209.885 83.2877L245.304 42.0822H268.274L227.595 88.3726L228.471 77.326L270.027 126.247H245.479ZM192 126.247V0H211.288V126.247H192Z" fill="#F2F2F8"/>
<path d="M313.015 128C305.884 128 299.514 126.422 293.903 123.266C288.409 120.11 284.084 115.784 280.927 110.29C277.888 104.679 276.368 98.2502 276.368 91.0027V42.0822H295.656V90.126C295.656 94.2174 296.299 97.7242 297.585 100.647C298.988 103.452 300.975 105.615 303.547 107.134C306.235 108.654 309.391 109.414 313.015 109.414C318.626 109.414 322.893 107.777 325.815 104.504C328.854 101.114 330.374 96.3215 330.374 90.126V42.0822H349.662V91.0027C349.662 98.3671 348.084 104.855 344.927 110.466C341.888 115.96 337.621 120.285 332.127 123.441C326.633 126.48 320.263 128 313.015 128Z" fill="#F2F2F8"/>
<path d="M426.742 126.247V77.6767C426.742 72.0658 424.931 67.4484 421.307 63.8247C417.8 60.2009 413.241 58.389 407.63 58.389C403.889 58.389 400.558 59.2073 397.636 60.8438C394.713 62.4804 392.434 64.7598 390.797 67.6822C389.161 70.6046 388.342 73.9361 388.342 77.6767L380.803 73.4685C380.803 67.0393 382.205 61.3699 385.011 56.4603C387.816 51.4338 391.674 47.5178 396.584 44.7123C401.61 41.79 407.221 40.3288 413.416 40.3288C419.729 40.3288 425.34 41.9653 430.249 45.2384C435.159 48.3945 439.016 52.5443 441.822 57.6877C444.627 62.7142 446.03 67.9744 446.03 73.4685V126.247H426.742ZM369.055 126.247V42.0822H388.342V126.247H369.055Z" fill="#F2F2F8"/>
<path d="M500.874 128C493.276 128 486.379 126.071 480.184 122.214C474.105 118.356 469.254 113.154 465.63 106.608C462.123 99.9452 460.37 92.5224 460.37 84.3397C460.37 76.0402 462.123 68.6174 465.63 62.0712C469.254 55.4082 474.105 50.1479 480.184 46.2904C486.379 42.316 493.276 40.3288 500.874 40.3288C507.303 40.3288 512.973 41.7315 517.882 44.537C522.909 47.2256 526.883 50.9662 529.805 55.7589C532.728 60.5516 534.189 65.9872 534.189 72.0658V96.263C534.189 102.342 532.728 107.777 529.805 112.57C527 117.363 523.084 121.162 518.057 123.967C513.031 126.656 507.303 128 500.874 128ZM504.03 109.764C508.823 109.764 512.973 108.712 516.479 106.608C520.103 104.387 522.909 101.348 524.896 97.4904C526.883 93.6329 527.877 89.1909 527.877 84.1644C527.877 79.1379 526.883 74.6959 524.896 70.8384C522.909 66.9808 520.103 64 516.479 61.8959C512.973 59.6749 508.823 58.5644 504.03 58.5644C499.354 58.5644 495.205 59.6749 491.581 61.8959C488.074 64 485.268 66.9808 483.164 70.8384C481.177 74.6959 480.184 79.1379 480.184 84.1644C480.184 89.1909 481.177 93.6329 483.164 97.4904C485.268 101.348 488.074 104.387 491.581 106.608C495.205 108.712 499.354 109.764 504.03 109.764ZM545.937 126.247H526.649V103.627L529.981 83.1123L526.649 62.7726V0H545.937V126.247Z" fill="#F2F2F8"/>
<path d="M602.586 128C594.988 128 588.091 126.071 581.896 122.214C575.817 118.356 570.966 113.154 567.342 106.608C563.836 99.9452 562.082 92.5224 562.082 84.3397C562.082 76.0402 563.836 68.6174 567.342 62.0712C570.966 55.4082 575.817 50.1479 581.896 46.2904C588.091 42.316 594.988 40.3288 602.586 40.3288C609.016 40.3288 614.685 41.7315 619.594 44.537C624.621 47.2256 628.595 50.9662 631.518 55.7589C634.44 60.5516 635.901 65.9872 635.901 72.0658V96.263C635.901 102.342 634.44 107.777 631.518 112.57C628.712 117.363 624.796 121.162 619.77 123.967C614.743 126.656 609.016 128 602.586 128ZM605.742 109.764C612.873 109.764 618.601 107.368 622.926 102.575C627.368 97.7827 629.589 91.6457 629.589 84.1644C629.589 79.1379 628.595 74.6959 626.608 70.8384C624.621 66.9808 621.815 64 618.192 61.8959C614.685 59.6749 610.535 58.5644 605.742 58.5644C601.067 58.5644 596.917 59.6749 593.293 61.8959C589.786 64 586.981 66.9808 584.877 70.8384C582.889 74.6959 581.896 79.1379 581.896 84.1644C581.896 89.1909 582.889 93.6329 584.877 97.4904C586.981 101.348 589.786 104.387 593.293 106.608C596.917 108.712 601.067 109.764 605.742 109.764ZM628.362 126.247V103.627L631.693 83.1123L628.362 62.7726V42.0822H647.649V126.247H628.362Z" fill="#F2F2F8"/>
<path d="M726.742 126.247V77.6767C726.742 72.0658 724.931 67.4484 721.307 63.8247C717.8 60.2009 713.241 58.389 707.63 58.389C703.889 58.389 700.558 59.2073 697.636 60.8438C694.713 62.4804 692.434 64.7598 690.797 67.6822C689.161 70.6046 688.342 73.9361 688.342 77.6767L680.803 73.4685C680.803 67.0393 682.205 61.3699 685.011 56.4603C687.816 51.4338 691.674 47.5178 696.583 44.7123C701.61 41.79 707.221 40.3288 713.416 40.3288C719.729 40.3288 725.34 41.9653 730.249 45.2384C735.159 48.3945 739.016 52.5443 741.822 57.6877C744.627 62.7142 746.03 67.9744 746.03 73.4685V126.247H726.742ZM669.055 126.247V42.0822H688.342V126.247H669.055Z" fill="#F2F2F8"/>
<path d="M810.693 128C804.264 128 798.536 126.656 793.51 123.967C788.483 121.162 784.509 117.363 781.586 112.57C778.781 107.777 777.378 102.342 777.378 96.263V72.0658C777.378 65.9872 778.839 60.5516 781.762 55.7589C784.684 50.9662 788.658 47.2256 793.685 44.537C798.711 41.7315 804.381 40.3288 810.693 40.3288C818.291 40.3288 825.13 42.316 831.208 46.2904C837.404 50.1479 842.255 55.4082 845.762 62.0712C849.385 68.6174 851.197 76.0402 851.197 84.3397C851.197 92.5224 849.385 99.9452 845.762 106.608C842.255 113.154 837.404 118.356 831.208 122.214C825.13 126.071 818.291 128 810.693 128ZM807.537 109.764C812.213 109.764 816.304 108.712 819.811 106.608C823.435 104.387 826.24 101.348 828.227 97.4904C830.331 93.6329 831.383 89.1909 831.383 84.1644C831.383 79.1379 830.331 74.6959 828.227 70.8384C826.24 66.9808 823.435 64 819.811 61.8959C816.304 59.6749 812.213 58.5644 807.537 58.5644C802.861 58.5644 798.711 59.6749 795.088 61.8959C791.464 64 788.658 66.9808 786.671 70.8384C784.684 74.6959 783.69 79.1379 783.69 84.1644C783.69 89.1909 784.684 93.6329 786.671 97.4904C788.658 101.348 791.464 104.387 795.088 106.608C798.711 108.712 802.861 109.764 807.537 109.764ZM765.63 126.247V0H784.918V62.7726L781.586 83.1123L784.918 103.627V126.247H765.63Z" fill="#F2F2F8"/>
</g>
<defs>
<linearGradient id="paint0_linear_10_9" x1="0.581619" y1="-5.83425e-07" x2="127.418" y2="128" gradientUnits="userSpaceOnUse">
<stop stop-color="#6366F1"/>
<stop offset="1" stop-color="#8B5CF6"/>
</linearGradient>
<linearGradient id="paint1_linear_10_9" x1="0.581619" y1="-5.83425e-07" x2="127.418" y2="128" gradientUnits="userSpaceOnUse">
<stop stop-color="#6366F1"/>
<stop offset="1" stop-color="#8B5CF6"/>
</linearGradient>
<linearGradient id="paint2_linear_10_9" x1="0.581619" y1="-5.83425e-07" x2="127.418" y2="128" gradientUnits="userSpaceOnUse">
<stop stop-color="#6366F1"/>
<stop offset="1" stop-color="#8B5CF6"/>
</linearGradient>
<clipPath id="clip0_10_9">
<rect width="851.197" height="128" fill="white"/>
</clipPath>
</defs>
</svg>
